<svg width="20" height="20" viewBox="0 0 20 20" fill="none" xmlns="http://www.w3.org/2000/svg">
<path d="M18.7002 9.09995C18.6002 8.99995 17.8002 7.89995 16.4002 6.69995L15.0002 8.19995C15.9002 8.89995 16.5002 9.59995 16.8002 9.99995C16.0002 11 13.2002 14 9.9002 14C9.8002 14 9.7002 14 9.6002 14C8.9002 14.6 8.4002 15.1 7.7002 15.7C8.5002 15.9 9.3002 16 10.0002 16C14.9002 16 18.5002 11.1 18.7002 10.9C19.1002 10.4 19.1002 9.69995 18.7002 9.09995Z" fill="#202624"/>
<path d="M10 12C11.1 12 12 11.1 12 10C12 9.8 12 9.6 11.9 9.5L17.3 4.1C18.2 3.2 18.5 1.7 17.6 1L13.7 4.9C12.5 4.4 11.3 4 10 4C8.1 4 6.4 4.8 5 5.7C5.3 6 6.2 7.2 8 6.4C8.6 6.1 9.1 6 10 6C10.7 6 11.4 6.2 12.1 6.4L10.5 8.1C10.3 8.1 10.2 8 10 8C8.9 8 8 8.9 8 10C8 10.2 8 10.3 8.1 10.5L6 12.6C4.6 11.7 3.6 10.6 3.1 10C1.7 8.4 1.3 9 1.3 9.1C0.9 9.6 0.9 10.4 1.3 10.9C1.4 11 2.6 12.6 4.5 14L1 17.6C1.8 18.2 3.2 18.3 3.9 17.5L9.5 12C9.6 12 9.8 12 10 12Z" fill="#202624"/>
</svg>
