<svg width="20" height="20" viewBox="0 0 20 20" fill="none" xmlns="http://www.w3.org/2000/svg">
<path d="M18.7 9.1C18.5 8.9 14.9 4 10 4C5.2 4 1.5 8.9 1.3 9.1C0.9 9.6 0.9 10.4 1.3 10.9C1.4 11 1.8 11.6 3.1 10C3.9 9 6.7 6 10 6C13.3 6 16.1 9 16.9 10C16.1 11 13.3 14 10 14C9.1 14 8.6 14 8 13.7C6.2 12.8 5.3 14.1 5 14.4C6.4 15.3 8.1 16 10 16C14.8 16 18.5 11.1 18.7 10.9C19.1 10.4 19.1 9.6 18.7 9.1Z" fill="#202624"/>
<path d="M10 12C11.1046 12 12 11.1046 12 10C12 8.89543 11.1046 8 10 8C8.89543 8 8 8.89543 8 10C8 11.1046 8.89543 12 10 12Z" fill="#202624"/>
</svg>
